<?xml version="1.0" encoding="utf-8"?>
<!DOCTYPE svg PUBLIC "-//W3C//DTD SVG 1.1//EN" "http://www.w3.org/Graphics/SVG/1.1/DTD/svg11.dtd">
<svg version="1.1" xmlns="http://www.w3.org/2000/svg" xmlns:xlink="http://www.w3.org/1999/xlink" x="0px" y="0px" viewBox="0 0 1000 1000" enable-background="new 0 0 1000 1000" xml:space="preserve">
<g><g transform="translate(0.000000,512.000000) scale(0.100000,-0.100000)"><path d="M4689.7,5016.6c-759.2-65.2-1353.5-232-1968.9-554.1c-893.4-465.9-1652.6-1236.6-2105-2137.6C264.9,1625.1,100,923.4,100,120.1c0-801.4,164.9-1506.9,513.8-2202.8c400.7-795.6,1071.7-1522.2,1842.4-1991.9c1608.5-981.6,3671.4-937.5,5249.1,111.2C9743.3-2608,10471.8,18.5,9423.1,2229c-245.4,511.9-540.6,927.9-964.3,1353.5c-784.1,784.1-1704.4,1240.4-2810.5,1397.6C5448.9,5008.9,4854.5,5031.9,4689.7,5016.6z M5581.2,3525c1660.2-297.2,2866.1-1729.3,2866.1-3404.9c0-1899.9-1551-3450.9-3450.9-3450.9c-1901.8,0-3450.9,1549.1-3450.9,3450.9c0,1156,577.1,2227.7,1549.1,2877.6c437.1,293.3,962.4,487,1499.2,552.1C4800.9,3576.8,5377.9,3561.4,5581.2,3525z"/><path d="M4593.8,3231.7c-745.8-116.9-1319-400.7-1811.7-895.3c-255-256.9-404.5-454.4-546.4-724.7C2021,1203.3,1915.5,846.7,1863.8,356l-7.7-82.4H1998c132.3,0,147.6-3.8,191.7-51.8c40.3-44.1,47.9-67.1,38.3-120.8c-15.3-103.5-69-134.2-233.9-134.2h-139.9l9.6-99.7c49.8-483.1,180.2-903,404.5-1303.7c293.3-521.5,818.6-1010.3,1366.9-1269.2c335.5-159.1,722.8-266.5,1050.6-291.4l157.2-13.4v109.3c0,90.1,7.7,116.9,47.9,155.3c61.4,63.3,149.5,63.3,210.9,0c40.2-38.3,47.9-65.2,47.9-155.3v-109.3l159.1,13.4c485.1,38.3,998.9,224.3,1451.3,523.4c258.8,172.5,615.4,517.6,791.8,766.9c207.1,291.4,395,692.1,481.2,1029.5c40.3,153.4,57.5,253.1,97.8,573.2l9.6,70.9h-141.9c-166.8,0-216.7,28.8-233.9,138c-9.6,57.5-3.8,78.6,36.4,118.9c44.1,44.1,65.2,49.8,191.7,49.8h143.8l-9.6,92c-90.1,996.9-600.1,1850.1-1430.2,2390.7c-406.4,264.6-927.9,444.8-1388,481.2l-159.1,13.4v-109.3c0-90.1-7.7-116.9-47.9-155.3c-61.4-63.3-149.5-63.3-210.9,0c-40.3,38.3-47.9,65.2-47.9,153.4v105.4l-99.7-1.9C4687.7,3241.3,4620.6,3235.5,4593.8,3231.7z M7088,2154.2c30.7-30.7,55.6-74.8,55.6-99.7c0-23-341.3-605.8-759.2-1294.1L5625.2-491.4l-118.8-76.7c-310.6-199.4-2268-1426.4-2315.9-1451.3c-103.5-53.7-226.2,15.3-226.2,126.5c0,40.3,207.1,398.8,740,1278.7c408.3,672.9,759.2,1242.3,782.2,1263.4c21.1,23,498.5,329.7,1056.4,680.6c559.8,350.8,1102.4,692.1,1207.8,759.2c105.4,65.2,210.9,120.8,235.8,120.8C7011.3,2209.8,7057.4,2184.9,7088,2154.2z"/><path d="M5673.1,1042.3c-446.7-279.9-810.9-517.6-810.9-525.3c0-19.2,594.3-626.9,613.5-626.9c15.3,0,1021.8,1650.7,1012.2,1656.4C6484.1,1550.3,6117.9,1322.2,5673.1,1042.3z"/><path d="M4363.7-132.9c-141.9-235.8-371.9-615.4-511.9-845.4c-139.9-230.1-241.6-410.3-228.1-402.6c207.1,118.9,1620,1018,1621.9,1031.4c0,11.5-140,159.1-312.5,331.7l-310.6,310.6L4363.7-132.9z"/></g></g>
</svg>
